<mxfile host="app.diagrams.net" agent="Mozilla/5.0 (Windows NT 10.0; Win64; x64) AppleWebKit/537.36 (KHTML, like Gecko) Chrome/138.0.0.0 Safari/537.36" version="28.0.0">
  <diagram name="Page-1" id="BIzrvyEq5QXD6dAisHGM">
    <mxGraphModel dx="1042" dy="534" grid="1" gridSize="10" guides="1" tooltips="1" connect="1" arrows="1" fold="1" page="1" pageScale="1" pageWidth="850" pageHeight="1100" background="#FFFFFF" math="0" shadow="0">
      <root>
        <mxCell id="0" />
        <mxCell id="1" parent="0" />
        <mxCell id="TfKNB9sca7olysMiV7RA-158" value="" style="edgeStyle=orthogonalEdgeStyle;rounded=0;orthogonalLoop=1;jettySize=auto;html=1;" parent="1" source="TfKNB9sca7olysMiV7RA-112" target="TfKNB9sca7olysMiV7RA-155" edge="1">
          <mxGeometry relative="1" as="geometry" />
        </mxCell>
        <mxCell id="TfKNB9sca7olysMiV7RA-112" value="" style="rounded=1;whiteSpace=wrap;html=1;fillColor=none;" parent="1" vertex="1">
          <mxGeometry x="935" y="264.6" width="120" height="110" as="geometry" />
        </mxCell>
        <mxCell id="TfKNB9sca7olysMiV7RA-1" value="" style="rounded=1;whiteSpace=wrap;html=1;fillColor=#dae8fc;strokeColor=#6c8ebf;" parent="1" vertex="1">
          <mxGeometry x="65" y="134.6" width="120" height="60" as="geometry" />
        </mxCell>
        <mxCell id="TfKNB9sca7olysMiV7RA-2" value="" style="rounded=1;whiteSpace=wrap;html=1;fillColor=#dae8fc;strokeColor=#6c8ebf;" parent="1" vertex="1">
          <mxGeometry x="75" y="144.6" width="120" height="60" as="geometry" />
        </mxCell>
        <mxCell id="TfKNB9sca7olysMiV7RA-15" style="edgeStyle=orthogonalEdgeStyle;rounded=0;orthogonalLoop=1;jettySize=auto;html=1;entryX=0;entryY=0.5;entryDx=0;entryDy=0;" parent="1" source="TfKNB9sca7olysMiV7RA-3" target="TfKNB9sca7olysMiV7RA-7" edge="1">
          <mxGeometry relative="1" as="geometry" />
        </mxCell>
        <mxCell id="TfKNB9sca7olysMiV7RA-16" style="edgeStyle=orthogonalEdgeStyle;rounded=0;orthogonalLoop=1;jettySize=auto;html=1;entryX=0;entryY=0.5;entryDx=0;entryDy=0;" parent="1" source="TfKNB9sca7olysMiV7RA-3" target="TfKNB9sca7olysMiV7RA-4" edge="1">
          <mxGeometry relative="1" as="geometry" />
        </mxCell>
        <mxCell id="TfKNB9sca7olysMiV7RA-17" style="edgeStyle=orthogonalEdgeStyle;rounded=0;orthogonalLoop=1;jettySize=auto;html=1;entryX=0;entryY=0.5;entryDx=0;entryDy=0;" parent="1" source="TfKNB9sca7olysMiV7RA-3" target="TfKNB9sca7olysMiV7RA-10" edge="1">
          <mxGeometry relative="1" as="geometry" />
        </mxCell>
        <mxCell id="TfKNB9sca7olysMiV7RA-3" value="&lt;font style=&quot;font-size: 18px;&quot;&gt;Input&lt;/font&gt;" style="rounded=1;whiteSpace=wrap;html=1;fillColor=#dae8fc;strokeColor=#6c8ebf;" parent="1" vertex="1">
          <mxGeometry x="85" y="154.6" width="120" height="60" as="geometry" />
        </mxCell>
        <mxCell id="TfKNB9sca7olysMiV7RA-4" value="" style="rounded=1;whiteSpace=wrap;html=1;fillColor=#fff2cc;strokeColor=#d6b656;" parent="1" vertex="1">
          <mxGeometry x="265" y="54.6" width="120" height="60" as="geometry" />
        </mxCell>
        <mxCell id="TfKNB9sca7olysMiV7RA-5" value="" style="rounded=1;whiteSpace=wrap;html=1;fillColor=#fff2cc;strokeColor=#d6b656;" parent="1" vertex="1">
          <mxGeometry x="275" y="64.6" width="120" height="60" as="geometry" />
        </mxCell>
        <mxCell id="TfKNB9sca7olysMiV7RA-181" value="" style="edgeStyle=orthogonalEdgeStyle;rounded=0;orthogonalLoop=1;jettySize=auto;html=1;" parent="1" source="TfKNB9sca7olysMiV7RA-6" target="TfKNB9sca7olysMiV7RA-180" edge="1">
          <mxGeometry relative="1" as="geometry" />
        </mxCell>
        <mxCell id="TfKNB9sca7olysMiV7RA-6" value="&lt;font style=&quot;font-size: 18px;&quot;&gt;Query&lt;/font&gt;" style="rounded=1;whiteSpace=wrap;html=1;fillColor=#fff2cc;strokeColor=#d6b656;" parent="1" vertex="1">
          <mxGeometry x="285" y="74.6" width="120" height="60" as="geometry" />
        </mxCell>
        <mxCell id="TfKNB9sca7olysMiV7RA-7" value="" style="rounded=1;whiteSpace=wrap;html=1;fillColor=#fff2cc;strokeColor=#d6b656;" parent="1" vertex="1">
          <mxGeometry x="265" y="154.6" width="120" height="60" as="geometry" />
        </mxCell>
        <mxCell id="TfKNB9sca7olysMiV7RA-8" value="" style="rounded=1;whiteSpace=wrap;html=1;fillColor=#fff2cc;strokeColor=#d6b656;" parent="1" vertex="1">
          <mxGeometry x="275" y="164.6" width="120" height="60" as="geometry" />
        </mxCell>
        <mxCell id="TfKNB9sca7olysMiV7RA-175" value="" style="edgeStyle=orthogonalEdgeStyle;rounded=0;orthogonalLoop=1;jettySize=auto;html=1;" parent="1" source="TfKNB9sca7olysMiV7RA-9" target="TfKNB9sca7olysMiV7RA-174" edge="1">
          <mxGeometry relative="1" as="geometry" />
        </mxCell>
        <mxCell id="TfKNB9sca7olysMiV7RA-9" value="&lt;font style=&quot;font-size: 18px;&quot;&gt;Key&lt;/font&gt;" style="rounded=1;whiteSpace=wrap;html=1;fillColor=#fff2cc;strokeColor=#d6b656;" parent="1" vertex="1">
          <mxGeometry x="285" y="174.6" width="120" height="60" as="geometry" />
        </mxCell>
        <mxCell id="TfKNB9sca7olysMiV7RA-10" value="" style="rounded=1;whiteSpace=wrap;html=1;fillColor=#e1d5e7;strokeColor=#9673a6;" parent="1" vertex="1">
          <mxGeometry x="265" y="254.6" width="120" height="60" as="geometry" />
        </mxCell>
        <mxCell id="TfKNB9sca7olysMiV7RA-11" value="" style="rounded=1;whiteSpace=wrap;html=1;fillColor=#e1d5e7;strokeColor=#9673a6;" parent="1" vertex="1">
          <mxGeometry x="275" y="264.6" width="120" height="60" as="geometry" />
        </mxCell>
        <mxCell id="TfKNB9sca7olysMiV7RA-12" value="&lt;font style=&quot;font-size: 18px;&quot;&gt;Value&lt;/font&gt;" style="rounded=1;whiteSpace=wrap;html=1;fillColor=#e1d5e7;strokeColor=#9673a6;" parent="1" vertex="1">
          <mxGeometry x="285" y="274.6" width="120" height="60" as="geometry" />
        </mxCell>
        <mxCell id="TfKNB9sca7olysMiV7RA-176" style="edgeStyle=orthogonalEdgeStyle;rounded=0;orthogonalLoop=1;jettySize=auto;html=1;exitX=0;exitY=0.25;exitDx=0;exitDy=0;exitPerimeter=0;" parent="1" source="TfKNB9sca7olysMiV7RA-18" target="TfKNB9sca7olysMiV7RA-174" edge="1">
          <mxGeometry relative="1" as="geometry">
            <Array as="points">
              <mxPoint x="510" y="169.6" />
              <mxPoint x="510" y="204.6" />
            </Array>
          </mxGeometry>
        </mxCell>
        <mxCell id="TfKNB9sca7olysMiV7RA-18" value="" style="rounded=1;whiteSpace=wrap;html=1;fillColor=#dae8fc;strokeColor=#6c8ebf;points=[[0,0,0,0,0],[0,0.25,0,0,0],[0,0.5,0,0,0],[0,0.75,0,0,0],[0,1,0,0,0],[0.25,0,0,0,0],[0.25,1,0,0,0],[0.5,0,0,0,0],[0.5,1,0,0,0],[0.75,0,0,0,0],[0.75,1,0,0,0],[1,0,0,0,0],[1,0.35,0,0,0],[1,0.5,0,0,0],[1,0.65,0,0,0],[1,1,0,0,0]];" parent="1" vertex="1">
          <mxGeometry x="530" y="154.6" width="120" height="60" as="geometry" />
        </mxCell>
        <mxCell id="TfKNB9sca7olysMiV7RA-19" value="" style="rounded=1;whiteSpace=wrap;html=1;fillColor=#dae8fc;strokeColor=#6c8ebf;" parent="1" vertex="1">
          <mxGeometry x="540" y="164.6" width="120" height="60" as="geometry" />
        </mxCell>
        <mxCell id="TfKNB9sca7olysMiV7RA-20" value="&lt;font style=&quot;font-size: 16px;&quot;&gt;Steerable&lt;/font&gt;&lt;div&gt;&lt;div&gt;&lt;font style=&quot;font-size: 16px;&quot;&gt;Positional&lt;/font&gt;&lt;/div&gt;&lt;div&gt;&lt;font style=&quot;font-size: 16px;&quot;&gt;Encoding&lt;/font&gt;&lt;/div&gt;&lt;/div&gt;" style="rounded=1;whiteSpace=wrap;html=1;fillColor=#dae8fc;strokeColor=#6c8ebf;" parent="1" vertex="1">
          <mxGeometry x="550" y="174.6" width="120" height="60" as="geometry" />
        </mxCell>
        <mxCell id="TfKNB9sca7olysMiV7RA-194" style="edgeStyle=orthogonalEdgeStyle;rounded=0;orthogonalLoop=1;jettySize=auto;html=1;entryX=0.5;entryY=0;entryDx=0;entryDy=0;" parent="1" source="TfKNB9sca7olysMiV7RA-28" target="TfKNB9sca7olysMiV7RA-193" edge="1">
          <mxGeometry relative="1" as="geometry" />
        </mxCell>
        <mxCell id="TfKNB9sca7olysMiV7RA-28" value="&lt;font style=&quot;font-size: 16px;&quot;&gt;Equivariant&amp;nbsp;&lt;/font&gt;&lt;div&gt;&lt;font style=&quot;font-size: 16px;&quot;&gt;Scores&lt;/font&gt;&lt;/div&gt;" style="rounded=1;whiteSpace=wrap;html=1;fillColor=#f8cecc;strokeColor=#b85450;" parent="1" vertex="1">
          <mxGeometry x="705" y="74.6" width="120" height="60" as="geometry" />
        </mxCell>
        <mxCell id="TfKNB9sca7olysMiV7RA-224" style="edgeStyle=orthogonalEdgeStyle;rounded=0;orthogonalLoop=1;jettySize=auto;html=1;entryX=1;entryY=0.5;entryDx=0;entryDy=0;" parent="1" source="TfKNB9sca7olysMiV7RA-34" target="TfKNB9sca7olysMiV7RA-179" edge="1">
          <mxGeometry relative="1" as="geometry" />
        </mxCell>
        <mxCell id="TfKNB9sca7olysMiV7RA-34" value="&lt;font style=&quot;font-size: 16px;&quot;&gt;Equivariant&amp;nbsp;&lt;/font&gt;&lt;div&gt;&lt;font style=&quot;font-size: 16px;&quot;&gt;Attention Scores&lt;/font&gt;&lt;/div&gt;" style="rounded=1;whiteSpace=wrap;html=1;fillColor=#f8cecc;strokeColor=#b85450;" parent="1" vertex="1">
          <mxGeometry x="705" y="274.6" width="120" height="60" as="geometry" />
        </mxCell>
        <mxCell id="TfKNB9sca7olysMiV7RA-63" value="" style="rounded=1;whiteSpace=wrap;html=1;fillColor=#d5e8d4;strokeColor=#82b366;" parent="1" vertex="1">
          <mxGeometry x="530" y="374.6" width="120" height="60" as="geometry" />
        </mxCell>
        <mxCell id="TfKNB9sca7olysMiV7RA-64" value="" style="rounded=1;whiteSpace=wrap;html=1;fillColor=#d5e8d4;strokeColor=#82b366;" parent="1" vertex="1">
          <mxGeometry x="540" y="384.6" width="120" height="60" as="geometry" />
        </mxCell>
        <mxCell id="TfKNB9sca7olysMiV7RA-65" value="&lt;font style=&quot;font-size: 18px;&quot;&gt;Output&lt;/font&gt;" style="rounded=1;whiteSpace=wrap;html=1;fillColor=#d5e8d4;strokeColor=#82b366;" parent="1" vertex="1">
          <mxGeometry x="550" y="394.6" width="120" height="60" as="geometry" />
        </mxCell>
        <mxCell id="TfKNB9sca7olysMiV7RA-88" style="edgeStyle=orthogonalEdgeStyle;rounded=0;orthogonalLoop=1;jettySize=auto;html=1;entryX=0.5;entryY=0;entryDx=0;entryDy=0;" parent="1" source="TfKNB9sca7olysMiV7RA-73" target="TfKNB9sca7olysMiV7RA-74" edge="1">
          <mxGeometry relative="1" as="geometry" />
        </mxCell>
        <mxCell id="TfKNB9sca7olysMiV7RA-73" value="&lt;font style=&quot;font-size: 14px; color: rgb(0, 0, 0);&quot;&gt;Input&lt;/font&gt;" style="rounded=1;whiteSpace=wrap;html=1;fillColor=#1ba1e2;fontColor=#ffffff;strokeColor=#006EAF;" parent="1" vertex="1">
          <mxGeometry x="945" y="24.6" width="100" height="20" as="geometry" />
        </mxCell>
        <mxCell id="TfKNB9sca7olysMiV7RA-90" style="edgeStyle=orthogonalEdgeStyle;rounded=0;orthogonalLoop=1;jettySize=auto;html=1;entryX=0.5;entryY=0;entryDx=0;entryDy=0;" parent="1" source="TfKNB9sca7olysMiV7RA-74" target="TfKNB9sca7olysMiV7RA-75" edge="1">
          <mxGeometry relative="1" as="geometry" />
        </mxCell>
        <mxCell id="TfKNB9sca7olysMiV7RA-74" value="&lt;font style=&quot;font-size: 14px; color: rgb(0, 0, 0);&quot;&gt;Layer&lt;/font&gt;&lt;div&gt;&lt;font style=&quot;font-size: 14px; color: rgb(0, 0, 0);&quot;&gt;Normalizarion&lt;/font&gt;&lt;/div&gt;" style="rounded=1;whiteSpace=wrap;html=1;fillColor=#00A400;fontColor=#ffffff;strokeColor=#005700;" parent="1" vertex="1">
          <mxGeometry x="945" y="64.6" width="100" height="30" as="geometry" />
        </mxCell>
        <mxCell id="TfKNB9sca7olysMiV7RA-164" value="" style="edgeStyle=orthogonalEdgeStyle;rounded=0;orthogonalLoop=1;jettySize=auto;html=1;" parent="1" source="TfKNB9sca7olysMiV7RA-75" target="TfKNB9sca7olysMiV7RA-123" edge="1">
          <mxGeometry relative="1" as="geometry" />
        </mxCell>
        <mxCell id="TfKNB9sca7olysMiV7RA-75" value="&lt;font style=&quot;font-size: 14px; color: rgb(0, 0, 0);&quot;&gt;Steerable&lt;/font&gt;&lt;div&gt;&lt;font style=&quot;font-size: 14px; color: rgb(0, 0, 0);&quot;&gt;Attention&lt;/font&gt;&lt;/div&gt;" style="rounded=1;whiteSpace=wrap;html=1;fillColor=#d80073;fontColor=#ffffff;strokeColor=#A50040;" parent="1" vertex="1">
          <mxGeometry x="945" y="114.6" width="100" height="30" as="geometry" />
        </mxCell>
        <mxCell id="TfKNB9sca7olysMiV7RA-114" style="edgeStyle=orthogonalEdgeStyle;rounded=0;orthogonalLoop=1;jettySize=auto;html=1;entryX=0.5;entryY=0;entryDx=0;entryDy=0;" parent="1" target="TfKNB9sca7olysMiV7RA-112" edge="1">
          <mxGeometry relative="1" as="geometry">
            <mxPoint x="995" y="244.59999999999988" as="sourcePoint" />
          </mxGeometry>
        </mxCell>
        <mxCell id="TfKNB9sca7olysMiV7RA-86" value="&lt;font style=&quot;font-size: 14px; color: rgb(0, 0, 0);&quot;&gt;Output&lt;/font&gt;" style="rounded=1;whiteSpace=wrap;html=1;fillColor=#75CF19;fontColor=#ffffff;strokeColor=#2D7600;" parent="1" vertex="1">
          <mxGeometry x="945" y="444.6" width="100" height="20" as="geometry" />
        </mxCell>
        <mxCell id="TfKNB9sca7olysMiV7RA-109" value="&lt;font style=&quot;font-size: 14px; color: rgb(0, 0, 0);&quot;&gt;Weight&lt;/font&gt;&lt;div&gt;&lt;font style=&quot;font-size: 14px; color: rgb(0, 0, 0);&quot;&gt;Multiplication&lt;/font&gt;&lt;/div&gt;" style="rounded=1;whiteSpace=wrap;html=1;fillColor=#B7A000;fontColor=#000000;strokeColor=#B09500;" parent="1" vertex="1">
          <mxGeometry x="945" y="274.6" width="100" height="30" as="geometry" />
        </mxCell>
        <mxCell id="TfKNB9sca7olysMiV7RA-110" value="&lt;font style=&quot;font-size: 14px; color: rgb(0, 0, 0);&quot;&gt;Weight&lt;/font&gt;&lt;div&gt;&lt;font style=&quot;font-size: 14px; color: rgb(0, 0, 0);&quot;&gt;Multiplication&lt;/font&gt;&lt;/div&gt;" style="rounded=1;whiteSpace=wrap;html=1;fillColor=#B7A000;fontColor=#000000;strokeColor=#B09500;" parent="1" vertex="1">
          <mxGeometry x="945" y="334.6" width="100" height="30" as="geometry" />
        </mxCell>
        <mxCell id="TfKNB9sca7olysMiV7RA-111" value="&lt;font style=&quot;font-size: 14px; color: rgb(0, 0, 0);&quot;&gt;Non-linearity&lt;/font&gt;" style="rounded=1;whiteSpace=wrap;html=1;fillColor=#76608a;fontColor=#ffffff;strokeColor=#432D57;" parent="1" vertex="1">
          <mxGeometry x="945" y="309.6" width="100" height="20" as="geometry" />
        </mxCell>
        <mxCell id="TfKNB9sca7olysMiV7RA-167" style="edgeStyle=orthogonalEdgeStyle;rounded=0;orthogonalLoop=1;jettySize=auto;html=1;entryX=0.5;entryY=0;entryDx=0;entryDy=0;" parent="1" source="TfKNB9sca7olysMiV7RA-123" edge="1">
          <mxGeometry relative="1" as="geometry">
            <mxPoint x="995" y="214.59999999999988" as="targetPoint" />
          </mxGeometry>
        </mxCell>
        <mxCell id="TfKNB9sca7olysMiV7RA-123" value="" style="verticalLabelPosition=bottom;verticalAlign=top;html=1;shape=mxgraph.flowchart.summing_function;labelBackgroundColor=none;fillColor=none;" parent="1" vertex="1">
          <mxGeometry x="980" y="164.6" width="30" height="30" as="geometry" />
        </mxCell>
        <mxCell id="TfKNB9sca7olysMiV7RA-159" value="" style="edgeStyle=orthogonalEdgeStyle;rounded=0;orthogonalLoop=1;jettySize=auto;html=1;" parent="1" source="TfKNB9sca7olysMiV7RA-155" target="TfKNB9sca7olysMiV7RA-86" edge="1">
          <mxGeometry relative="1" as="geometry" />
        </mxCell>
        <mxCell id="TfKNB9sca7olysMiV7RA-155" value="" style="verticalLabelPosition=bottom;verticalAlign=top;html=1;shape=mxgraph.flowchart.summing_function;labelBackgroundColor=none;fillColor=none;" parent="1" vertex="1">
          <mxGeometry x="980" y="394.6" width="30" height="30" as="geometry" />
        </mxCell>
        <mxCell id="TfKNB9sca7olysMiV7RA-223" style="edgeStyle=orthogonalEdgeStyle;rounded=0;orthogonalLoop=1;jettySize=auto;html=1;entryX=0;entryY=0.5;entryDx=0;entryDy=0;" parent="1" source="TfKNB9sca7olysMiV7RA-170" target="TfKNB9sca7olysMiV7RA-179" edge="1">
          <mxGeometry relative="1" as="geometry" />
        </mxCell>
        <mxCell id="TfKNB9sca7olysMiV7RA-170" value="" style="verticalLabelPosition=bottom;verticalAlign=top;html=1;shape=mxgraph.flowchart.summing_function;labelBackgroundColor=none;fillColor=none;" parent="1" vertex="1">
          <mxGeometry x="443.75" y="289.6" width="30" height="30" as="geometry" />
        </mxCell>
        <mxCell id="TfKNB9sca7olysMiV7RA-171" style="edgeStyle=orthogonalEdgeStyle;rounded=0;orthogonalLoop=1;jettySize=auto;html=1;entryX=0;entryY=0.5;entryDx=0;entryDy=0;entryPerimeter=0;" parent="1" source="TfKNB9sca7olysMiV7RA-12" target="TfKNB9sca7olysMiV7RA-170" edge="1">
          <mxGeometry relative="1" as="geometry" />
        </mxCell>
        <mxCell id="TfKNB9sca7olysMiV7RA-173" style="edgeStyle=orthogonalEdgeStyle;rounded=0;orthogonalLoop=1;jettySize=auto;html=1;exitX=0;exitY=0.75;exitDx=0;exitDy=0;exitPerimeter=0;entryX=0.5;entryY=0;entryDx=0;entryDy=0;entryPerimeter=0;" parent="1" source="TfKNB9sca7olysMiV7RA-18" target="TfKNB9sca7olysMiV7RA-170" edge="1">
          <mxGeometry relative="1" as="geometry">
            <Array as="points">
              <mxPoint x="520" y="199.6" />
              <mxPoint x="520" y="244.6" />
              <mxPoint x="459" y="244.6" />
            </Array>
          </mxGeometry>
        </mxCell>
        <mxCell id="TfKNB9sca7olysMiV7RA-183" style="edgeStyle=orthogonalEdgeStyle;rounded=0;orthogonalLoop=1;jettySize=auto;html=1;entryX=0.5;entryY=1;entryDx=0;entryDy=0;" parent="1" source="TfKNB9sca7olysMiV7RA-174" target="TfKNB9sca7olysMiV7RA-180" edge="1">
          <mxGeometry relative="1" as="geometry" />
        </mxCell>
        <mxCell id="TfKNB9sca7olysMiV7RA-174" value="" style="verticalLabelPosition=bottom;verticalAlign=top;html=1;shape=mxgraph.flowchart.summing_function;labelBackgroundColor=default;fillColor=none;" parent="1" vertex="1">
          <mxGeometry x="441.25" y="189.6" width="30" height="30" as="geometry" />
        </mxCell>
        <mxCell id="TfKNB9sca7olysMiV7RA-187" style="edgeStyle=orthogonalEdgeStyle;rounded=0;orthogonalLoop=1;jettySize=auto;html=1;entryX=0.5;entryY=0;entryDx=0;entryDy=0;" parent="1" source="TfKNB9sca7olysMiV7RA-179" target="TfKNB9sca7olysMiV7RA-63" edge="1">
          <mxGeometry relative="1" as="geometry" />
        </mxCell>
        <mxCell id="TfKNB9sca7olysMiV7RA-179" value="" style="ellipse;whiteSpace=wrap;html=1;aspect=fixed;labelBackgroundColor=none;fillColor=none;" parent="1" vertex="1">
          <mxGeometry x="575" y="289.6" width="30" height="30" as="geometry" />
        </mxCell>
        <mxCell id="TfKNB9sca7olysMiV7RA-182" style="edgeStyle=orthogonalEdgeStyle;rounded=0;orthogonalLoop=1;jettySize=auto;html=1;" parent="1" source="TfKNB9sca7olysMiV7RA-180" target="TfKNB9sca7olysMiV7RA-28" edge="1">
          <mxGeometry relative="1" as="geometry" />
        </mxCell>
        <mxCell id="TfKNB9sca7olysMiV7RA-180" value="" style="ellipse;whiteSpace=wrap;html=1;aspect=fixed;labelBackgroundColor=#FFFFFF;textShadow=0;fillColor=none;" parent="1" vertex="1">
          <mxGeometry x="441.25" y="89.6" width="30" height="30" as="geometry" />
        </mxCell>
        <mxCell id="TfKNB9sca7olysMiV7RA-195" style="edgeStyle=orthogonalEdgeStyle;rounded=0;orthogonalLoop=1;jettySize=auto;html=1;" parent="1" source="TfKNB9sca7olysMiV7RA-193" target="TfKNB9sca7olysMiV7RA-34" edge="1">
          <mxGeometry relative="1" as="geometry" />
        </mxCell>
        <mxCell id="TfKNB9sca7olysMiV7RA-193" value="" style="ellipse;whiteSpace=wrap;html=1;aspect=fixed;labelBackgroundColor=none;fillColor=none;" parent="1" vertex="1">
          <mxGeometry x="750" y="189.6" width="30" height="30" as="geometry" />
        </mxCell>
        <mxCell id="TfKNB9sca7olysMiV7RA-196" value="&lt;font style=&quot;font-size: 16px;&quot;&gt;Linear&lt;/font&gt;&lt;div&gt;&lt;font style=&quot;font-size: 16px;&quot;&gt;Combination&lt;/font&gt;&lt;/div&gt;" style="text;html=1;align=center;verticalAlign=middle;resizable=0;points=[];autosize=1;strokeColor=none;fillColor=none;" parent="1" vertex="1">
          <mxGeometry x="535" y="244.6" width="110" height="50" as="geometry" />
        </mxCell>
        <mxCell id="TfKNB9sca7olysMiV7RA-197" value="&lt;font style=&quot;font-size: 16px;&quot;&gt;Scaled Dot&amp;nbsp;&lt;/font&gt;&lt;div&gt;&lt;font style=&quot;font-size: 16px;&quot;&gt;Product&lt;/font&gt;&lt;/div&gt;" style="text;html=1;align=center;verticalAlign=middle;resizable=0;points=[];autosize=1;strokeColor=none;fillColor=none;" parent="1" vertex="1">
          <mxGeometry x="401.25" y="39.6" width="110" height="50" as="geometry" />
        </mxCell>
        <mxCell id="TfKNB9sca7olysMiV7RA-198" value="&lt;font style=&quot;font-size: 15px;&quot;&gt;Softmax&lt;/font&gt;&lt;div&gt;&lt;div&gt;&lt;font style=&quot;font-size: 15px;&quot;&gt;on the&amp;nbsp;&lt;/font&gt;&lt;/div&gt;&lt;div&gt;&lt;font style=&quot;font-size: 15px;&quot;&gt;Norm&lt;/font&gt;&lt;/div&gt;&lt;/div&gt;" style="text;html=1;align=center;verticalAlign=middle;resizable=0;points=[];autosize=1;strokeColor=none;fillColor=none;" parent="1" vertex="1">
          <mxGeometry x="775" y="174.6" width="80" height="70" as="geometry" />
        </mxCell>
        <mxCell id="TfKNB9sca7olysMiV7RA-199" value="Multi-Layer" style="text;html=1;align=center;verticalAlign=middle;resizable=0;points=[];autosize=1;strokeColor=none;fillColor=none;rotation=270;fontSize=16;" parent="1" vertex="1">
          <mxGeometry x="875" y="304.6" width="100" height="30" as="geometry" />
        </mxCell>
        <mxCell id="TfKNB9sca7olysMiV7RA-200" value="Perceptron" style="text;html=1;align=center;verticalAlign=middle;resizable=0;points=[];autosize=1;strokeColor=none;fillColor=none;rotation=270;fontSize=16;" parent="1" vertex="1">
          <mxGeometry x="1015" y="304.6" width="100" height="30" as="geometry" />
        </mxCell>
        <mxCell id="TfKNB9sca7olysMiV7RA-201" value="&lt;font style=&quot;font-size: 16px;&quot;&gt;Feature Maps for all&lt;/font&gt;&lt;div&gt;&lt;font style=&quot;font-size: 16px;&quot;&gt;Fourier Components&lt;/font&gt;&lt;/div&gt;" style="text;html=1;align=center;verticalAlign=middle;resizable=0;points=[];autosize=1;strokeColor=none;fillColor=none;" parent="1" vertex="1">
          <mxGeometry x="60" y="214.6" width="170" height="50" as="geometry" />
        </mxCell>
        <mxCell id="TfKNB9sca7olysMiV7RA-203" style="edgeStyle=orthogonalEdgeStyle;rounded=0;orthogonalLoop=1;jettySize=auto;html=1;entryX=1;entryY=0.5;entryDx=0;entryDy=0;entryPerimeter=0;" parent="1" source="TfKNB9sca7olysMiV7RA-73" target="TfKNB9sca7olysMiV7RA-123" edge="1">
          <mxGeometry relative="1" as="geometry">
            <Array as="points">
              <mxPoint x="1065" y="34.6" />
              <mxPoint x="1065" y="179.6" />
            </Array>
          </mxGeometry>
        </mxCell>
        <mxCell id="TfKNB9sca7olysMiV7RA-211" style="edgeStyle=orthogonalEdgeStyle;rounded=0;orthogonalLoop=1;jettySize=auto;html=1;entryX=0;entryY=0.5;entryDx=0;entryDy=0;entryPerimeter=0;" parent="1" source="TfKNB9sca7olysMiV7RA-123" target="TfKNB9sca7olysMiV7RA-155" edge="1">
          <mxGeometry relative="1" as="geometry">
            <Array as="points">
              <mxPoint x="915" y="179.6" />
              <mxPoint x="915" y="409.6" />
            </Array>
          </mxGeometry>
        </mxCell>
        <mxCell id="TfKNB9sca7olysMiV7RA-218" value="" style="endArrow=none;dashed=1;html=1;rounded=0;" parent="1" edge="1">
          <mxGeometry width="50" height="50" relative="1" as="geometry">
            <mxPoint x="877" y="510" as="sourcePoint" />
            <mxPoint x="876.52" y="10" as="targetPoint" />
          </mxGeometry>
        </mxCell>
        <mxCell id="TfKNB9sca7olysMiV7RA-219" value="&lt;font style=&quot;font-size: 20px;&quot;&gt;Steerable Attention Mechanism&lt;/font&gt;" style="text;html=1;align=center;verticalAlign=middle;resizable=0;points=[];autosize=1;strokeColor=none;fillColor=none;" parent="1" vertex="1">
          <mxGeometry x="420" y="467.6" width="300" height="40" as="geometry" />
        </mxCell>
        <mxCell id="TfKNB9sca7olysMiV7RA-220" value="&lt;font style=&quot;font-size: 20px;&quot;&gt;Vision&amp;nbsp;&lt;/font&gt;&lt;div&gt;&lt;font style=&quot;font-size: 20px;&quot;&gt;Transformer&amp;nbsp;&lt;/font&gt;&lt;span style=&quot;font-size: 20px; background-color: transparent; color: light-dark(rgb(0, 0, 0), rgb(255, 255, 255));&quot;&gt;Layer&lt;/span&gt;&lt;/div&gt;" style="text;html=1;align=center;verticalAlign=middle;resizable=0;points=[];autosize=1;strokeColor=none;fillColor=none;" parent="1" vertex="1">
          <mxGeometry x="900" y="457.6" width="190" height="60" as="geometry" />
        </mxCell>
        <mxCell id="TfKNB9sca7olysMiV7RA-225" value="&lt;font style=&quot;font-size: 14px; color: rgb(0, 0, 0);&quot;&gt;Layer&lt;/font&gt;&lt;div&gt;&lt;font style=&quot;font-size: 14px; color: rgb(0, 0, 0);&quot;&gt;Normalizarion&lt;/font&gt;&lt;/div&gt;" style="rounded=1;whiteSpace=wrap;html=1;fillColor=#00A400;fontColor=#ffffff;strokeColor=#005700;" parent="1" vertex="1">
          <mxGeometry x="945" y="214.6" width="100" height="30" as="geometry" />
        </mxCell>
      </root>
    </mxGraphModel>
  </diagram>
</mxfile>
